#tb 0: 1/25
0,          0,          0,        1,  3110400, 0x3471f473
0,          1,          1,        1,  3110400, 0xb371a3e8
0,          2,          2,        1,  3110400, 0x6d83c623
0,          3,          3,        1,  3110400, 0x62d68b96
0,          4,          4,        1,  3110400, 0xa8ed6ea9
0,          5,          5,        1,  3110400, 0xcabe52be
0,          6,          6,        1,  3110400, 0xbbb23578
0,          7,          7,        1,  3110400, 0xb1609c77
0,          8,          8,        1,  3110400, 0x61e7c2a7
0,          9,          9,        1,  3110400, 0x6d8b34ad
0,         10,         10,        1,  3110400, 0xde0dfa96
0,         11,         11,        1,  3110400, 0x48c2b0b0
0,         12,         12,        1,  3110400, 0x647b6f90
0,         13,         13,        1,  3110400, 0xd37f2dda
0,         14,         14,        1,  3110400, 0x1b0dd122
0,         15,         15,        1,  3110400, 0x0b050786
0,         16,         16,        1,  3110400, 0xcd9ce7e5
0,         17,         17,        1,  3110400, 0xb92a4ee4
0,         18,         18,        1,  3110400, 0x4fa4d97c
0,         19,         19,        1,  3110400, 0x109777eb
0,         20,         20,        1,  3110400, 0xc3d2236a
0,         21,         21,        1,  3110400, 0x1cd12d07
0,         22,         22,        1,  3110400, 0xdd1ef75d
0,         23,         23,        1,  3110400, 0xd00c0906
0,         24,         24,        1,  3110400, 0x8de79207
0,         25,         25,        1,  3110400, 0x18017e1e
0,         26,         26,        1,  3110400, 0x4329f68a
0,         27,         27,        1,  3110400, 0x6a402bae
0,         28,         28,        1,  3110400, 0x90eb1a20
0,         29,         29,        1,  3110400, 0xe3474876
0,         30,         30,        1,  3110400, 0xd652e216
0,         31,         31,        1,  3110400, 0xeb458ebb
0,         32,         32,        1,  3110400, 0xc5aff075
0,         33,         33,        1,  3110400, 0xcb4d72e7
0,         34,         34,        1,  3110400, 0x5504d9c5
0,         35,         35,        1,  3110400, 0xcd0147b4
0,         36,         36,        1,  3110400, 0xe2f0001e
0,         37,         37,        1,  3110400, 0xa2199fe5
0,         38,         38,        1,  3110400, 0x2f269683
0,         39,         39,        1,  3110400, 0x7cf11244
0,         40,         40,        1,  3110400, 0xf39cb39d
0,         41,         41,        1,  3110400, 0x0e195a06
0,         42,         42,        1,  3110400, 0x195e31e3
0,         43,         43,        1,  3110400, 0xc43cd272
0,         44,         44,        1,  3110400, 0x9dc1c4ea
0,         45,         45,        1,  3110400, 0x846cd55f
0,         46,         46,        1,  3110400, 0xe9468052
0,         47,         47,        1,  3110400, 0xc5bb38ff
0,         48,         48,        1,  3110400, 0xd1886697
0,         49,         49,        1,  3110400, 0x23f2012b
0,         50,         50,        1,  3110400, 0x669d63ff
0,         51,         51,        1,  3110400, 0xced83804
0,         52,         52,        1,  3110400, 0x005f5f3d
0,         53,         53,        1,  3110400, 0x772efc80
0,         54,         54,        1,  3110400, 0x94012838
0,         55,         55,        1,  3110400, 0x99770054
0,         56,         56,        1,  3110400, 0x8654c655
0,         57,         57,        1,  3110400, 0xed3d19f4
0,         58,         58,        1,  3110400, 0x8efc2172
0,         59,         59,        1,  3110400, 0x9aaf930d
0,         60,         60,        1,  3110400, 0xbe32f43e
0,         61,         61,        1,  3110400, 0x6008f53e
0,         62,         62,        1,  3110400, 0xb87897b9
0,         63,         63,        1,  3110400, 0xe2406eb1
0,         64,         64,        1,  3110400, 0xbdfa067b
0,         65,         65,        1,  3110400, 0x82a16dbd
0,         66,         66,        1,  3110400, 0x909aa5f0
0,         67,         67,        1,  3110400, 0xc63836b5
0,         68,         68,        1,  3110400, 0xaf7ad199
0,         69,         69,        1,  3110400, 0xfa010078
0,         70,         70,        1,  3110400, 0x00c0c24e
0,         71,         71,        1,  3110400, 0xbda7cc4e
0,         72,         72,        1,  3110400, 0xda97f9d5
0,         73,         73,        1,  3110400, 0xd359e94a
0,         74,         74,        1,  3110400, 0xcd48c131
0,         75,         75,        1,  3110400, 0xb52ca032
0,         76,         76,        1,  3110400, 0x55a69650
0,         77,         77,        1,  3110400, 0x7241c1a9
0,         78,         78,        1,  3110400, 0xf06c5744
0,         79,         79,        1,  3110400, 0xe1befd73
0,         80,         80,        1,  3110400, 0xe8ffea92
0,         81,         81,        1,  3110400, 0xd76e40b6
0,         82,         82,        1,  3110400, 0xbf5f5b4c
0,         83,         83,        1,  3110400, 0x0eb8d128
0,         84,         84,        1,  3110400, 0x453dd680
0,         85,         85,        1,  3110400, 0x7114fada
0,         86,         86,        1,  3110400, 0xa3b4e7a8
0,         87,         87,        1,  3110400, 0xbca356f0
0,         88,         88,        1,  3110400, 0x80a83fa3
0,         89,         89,        1,  3110400, 0x713a33d4
0,         90,         90,        1,  3110400, 0x4fda8aea
0,         91,         91,        1,  3110400, 0x31ed1a88
0,         92,         92,        1,  3110400, 0x736312a0
0,         93,         93,        1,  3110400, 0x60aff0c5
0,         94,         94,        1,  3110400, 0xee66bd76
0,         95,         95,        1,  3110400, 0xe8f9a352
0,         96,         96,        1,  3110400, 0xb51520de
0,         97,         97,        1,  3110400, 0xd0542466
0,         98,         98,        1,  3110400, 0x92c2f3e1
0,         99,         99,        1,  3110400, 0xbbe1839a
